<svg width="54" height="12" viewBox="0 0 54 12" fill="none" xmlns="http://www.w3.org/2000/svg">
<path d="M3.95934 11L0.459336 1.396H2.43334L4.71534 8.004C4.75267 8.09733 4.79 8.20467 4.82734 8.326C4.86467 8.44733 4.902 8.564 4.93934 8.676C4.97667 8.77867 5.00934 8.872 5.03734 8.956H5.10734C5.13534 8.88133 5.16334 8.79267 5.19134 8.69C5.22867 8.58733 5.266 8.48 5.30334 8.368C5.34067 8.24667 5.378 8.13 5.41534 8.018L7.68334 1.396H9.57334L6.07334 11H3.95934ZM13.0886 11.168C12.3046 11.168 11.6513 11.0327 11.1286 10.762C10.606 10.482 10.214 10.0573 9.95265 9.488C9.69132 8.91867 9.56065 8.19533 9.56065 7.318C9.56065 6.43133 9.69132 5.708 9.95265 5.148C10.214 4.57867 10.606 4.15867 11.1286 3.888C11.6513 3.608 12.3046 3.468 13.0886 3.468C13.798 3.468 14.3906 3.60333 14.8666 3.874C15.352 4.13533 15.716 4.54133 15.9586 5.092C16.2013 5.64267 16.3226 6.35667 16.3226 7.234V7.738H11.3106C11.3293 8.19533 11.3993 8.58267 11.5206 8.9C11.642 9.208 11.8286 9.44133 12.0806 9.6C12.342 9.74933 12.6826 9.824 13.1026 9.824C13.3173 9.824 13.518 9.796 13.7046 9.74C13.8913 9.684 14.0546 9.6 14.1946 9.488C14.3346 9.36667 14.442 9.21733 14.5166 9.04C14.6006 8.86267 14.6426 8.65733 14.6426 8.424H16.3226C16.3226 8.89067 16.2386 9.29667 16.0706 9.642C15.912 9.98733 15.6833 10.272 15.3846 10.496C15.0953 10.72 14.7546 10.888 14.3626 11C13.9706 11.112 13.546 11.168 13.0886 11.168ZM11.3386 6.534H14.5446C14.5446 6.226 14.5073 5.96467 14.4326 5.75C14.3673 5.53533 14.2693 5.358 14.1386 5.218C14.0173 5.078 13.868 4.98 13.6906 4.924C13.5133 4.85867 13.3126 4.826 13.0886 4.826C12.7246 4.826 12.4166 4.88667 12.1646 5.008C11.922 5.12933 11.7353 5.316 11.6046 5.568C11.474 5.82 11.3853 6.142 11.3386 6.534ZM17.7723 11V3.636H19.2003L19.3403 4.798H19.4383C19.5316 4.56467 19.6436 4.35 19.7743 4.154C19.9143 3.94867 20.0916 3.78533 20.3063 3.664C20.521 3.53333 20.7823 3.468 21.0903 3.468C21.2396 3.468 21.375 3.482 21.4963 3.51C21.627 3.538 21.725 3.566 21.7903 3.594V5.204H21.2723C20.983 5.204 20.7263 5.246 20.5023 5.33C20.2783 5.40467 20.087 5.526 19.9283 5.694C19.779 5.862 19.667 6.072 19.5923 6.324C19.5176 6.576 19.4803 6.87 19.4803 7.206V11H17.7723ZM27.3199 11.168C26.8625 11.168 26.5032 11.0793 26.2419 10.902C25.9805 10.7153 25.7939 10.482 25.6819 10.202C25.5792 9.91267 25.5279 9.61867 25.5279 9.32V5.036H24.6459V3.636H25.5699L25.8779 1.578H27.2359V3.636H28.5099V5.036H27.2359V9.152C27.2359 9.348 27.2872 9.502 27.3899 9.614C27.4925 9.71667 27.6465 9.768 27.8519 9.768H28.5099V10.944C28.4165 10.9813 28.2999 11.014 28.1599 11.042C28.0292 11.0793 27.8892 11.1073 27.7399 11.126C27.5905 11.154 27.4505 11.168 27.3199 11.168ZM32.1142 11.168C31.4049 11.168 30.8262 10.9767 30.3782 10.594C29.9395 10.202 29.7202 9.53933 29.7202 8.606V3.636H31.4282V8.298C31.4282 8.55933 31.4562 8.77867 31.5122 8.956C31.5775 9.124 31.6662 9.264 31.7782 9.376C31.8995 9.47867 32.0442 9.55333 32.2122 9.6C32.3802 9.64667 32.5669 9.67 32.7722 9.67C33.0802 9.67 33.3555 9.59533 33.5982 9.446C33.8502 9.29667 34.0462 9.09133 34.1862 8.83C34.3355 8.55933 34.4102 8.256 34.4102 7.92V3.636H36.1182V11H34.7042L34.5642 10.02H34.4662C34.2982 10.244 34.0975 10.4447 33.8642 10.622C33.6402 10.79 33.3789 10.9207 33.0802 11.014C32.7909 11.1167 32.4689 11.168 32.1142 11.168ZM40.5003 11.168C39.903 11.168 39.385 11.0327 38.9463 10.762C38.5077 10.4913 38.167 10.0713 37.9243 9.502C37.691 8.93267 37.5743 8.2 37.5743 7.304C37.5743 6.41733 37.6957 5.694 37.9383 5.134C38.181 4.56467 38.517 4.14467 38.9463 3.874C39.3757 3.60333 39.861 3.468 40.4023 3.468C40.7383 3.468 41.0463 3.50533 41.3263 3.58C41.6063 3.65467 41.8537 3.77133 42.0683 3.93C42.283 4.07933 42.465 4.266 42.6143 4.49H42.6983V0.877999H44.4063V11H42.9923L42.8523 10.02H42.7543C42.521 10.4027 42.2037 10.692 41.8023 10.888C41.4103 11.0747 40.9763 11.168 40.5003 11.168ZM41.0323 9.698C41.4243 9.698 41.7417 9.60933 41.9843 9.432C42.227 9.25467 42.4043 8.998 42.5163 8.662C42.6377 8.326 42.6983 7.91533 42.6983 7.43V7.248C42.6983 6.884 42.6657 6.55733 42.6003 6.268C42.535 5.97867 42.4323 5.736 42.2923 5.54C42.1617 5.344 41.989 5.19467 41.7743 5.092C41.569 4.98933 41.3217 4.938 41.0323 4.938C40.6123 4.938 40.2763 5.022 40.0243 5.19C39.7817 5.34867 39.6043 5.60067 39.4923 5.946C39.3897 6.282 39.3383 6.71133 39.3383 7.234V7.43C39.3383 7.94333 39.3897 8.368 39.4923 8.704C39.6043 9.04 39.7817 9.292 40.0243 9.46C40.2763 9.61867 40.6123 9.698 41.0323 9.698ZM49.4995 11.168C48.6968 11.168 48.0248 11.0327 47.4835 10.762C46.9421 10.482 46.5361 10.0573 46.2655 9.488C45.9948 8.91867 45.8595 8.19533 45.8595 7.318C45.8595 6.43133 45.9948 5.708 46.2655 5.148C46.5361 4.57867 46.9421 4.15867 47.4835 3.888C48.0248 3.608 48.6968 3.468 49.4995 3.468C50.3115 3.468 50.9835 3.608 51.5155 3.888C52.0568 4.15867 52.4628 4.57867 52.7335 5.148C53.0041 5.708 53.1395 6.43133 53.1395 7.318C53.1395 8.19533 53.0041 8.91867 52.7335 9.488C52.4628 10.0573 52.0568 10.482 51.5155 10.762C50.9835 11.0327 50.3115 11.168 49.4995 11.168ZM49.4995 9.768C49.9475 9.768 50.3068 9.684 50.5775 9.516C50.8575 9.33867 51.0581 9.07733 51.1795 8.732C51.3101 8.37733 51.3755 7.93867 51.3755 7.416V7.22C51.3755 6.69733 51.3101 6.26333 51.1795 5.918C51.0581 5.56333 50.8575 5.302 50.5775 5.134C50.3068 4.95667 49.9475 4.868 49.4995 4.868C49.0515 4.868 48.6875 4.95667 48.4075 5.134C48.1368 5.302 47.9361 5.56333 47.8055 5.918C47.6841 6.26333 47.6235 6.69733 47.6235 7.22V7.416C47.6235 7.93867 47.6841 8.37733 47.8055 8.732C47.9361 9.07733 48.1368 9.33867 48.4075 9.516C48.6875 9.684 49.0515 9.768 49.4995 9.768Z" fill="#CBD5E1"/>
</svg>
